<svg height="auto" viewBox="0 0 2000 1400" xmlns="http://www.w3.org/2000/svg"><path d="m0 1392.044 111-53.065 111-85.356 111-5.938 111-91.305 111-105.226 111 96.55 111-22.524 111-162.685L999 737.74l111 99.9 111 85.258 111-85.363 111 4.68 111 4.427 111-326.923 111-256.951 111 80.292 111-242.685L2000 1400H0Z" fill="#ffffff1a"/><path d="m0 1392.044 111-53.065 111-85.356 111-5.938 111-91.305 111-105.226 111 96.55 111-22.524 111-162.685L999 737.74l111 99.9 111 85.258 111-85.363 111 4.68 111 4.427 111-326.923 111-256.951 111 80.292 111-242.685" fill="none" stroke="#fff" stroke-width="6"/></svg>