<?xml version="1.0" encoding="iso-8859-1"?>
<!-- Uploaded to: SVG Repo, www.svgrepo.com, Generator: SVG Repo Mixer Tools -->
<!DOCTYPE svg PUBLIC "-//W3C//DTD SVG 1.1//EN" "http://www.w3.org/Graphics/SVG/1.1/DTD/svg11.dtd">
<svg fill="#000000" version="1.1" id="Capa_1" xmlns="http://www.w3.org/2000/svg" xmlns:xlink="http://www.w3.org/1999/xlink" 
	 width="800px" height="800px" viewBox="0 0 540.588 540.588"
	 xml:space="preserve">
<g>
	<g>
		<path d="M420.588,503.896V36.682C420.588,16.457,404.131,0,383.906,0H156.682C136.457,0,120,16.457,120,36.682v467.215
			c0,20.225,16.457,36.691,36.682,36.691h227.225C404.131,540.587,420.588,524.121,420.588,503.896z M406.244,503.896
			c0,12.325-10.012,22.347-22.338,22.347H156.682c-12.307,0-22.338-10.021-22.338-22.347V36.682
			c0-12.307,10.031-22.338,22.338-22.338h227.225c12.326,0,22.338,10.031,22.338,22.338V503.896L406.244,503.896z"/>
		<path d="M388.457,59.651H152.13c-1.979,0-3.586,1.606-3.586,3.586v410.174c0,1.979,1.606,3.586,3.586,3.586h236.337
			c1.98,0,3.586-1.606,3.586-3.586V63.237C392.043,61.257,390.438,59.651,388.457,59.651z M375.309,469.825h-210.03
			c-5.278,0-9.562-4.284-9.562-9.562V76.385c0-5.278,4.284-9.562,9.562-9.562h210.03c5.279,0,9.562,4.284,9.562,9.562v383.877
			C384.871,465.541,380.598,469.825,375.309,469.825z"/>
		<path d="M250.126,37.81h40.344c1.979,0,3.586-1.606,3.586-3.586c0-1.979-1.607-3.586-3.586-3.586h-40.344
			c-1.979,0-3.586,1.607-3.586,3.586C246.541,36.204,248.147,37.81,250.126,37.81z"/>
		<path d="M290.949,485.191h-41.311c-8.482,0-15.386,6.904-15.386,15.377v2.467c0,8.482,6.914,15.387,15.386,15.387h41.311
			c8.482,0,15.385-6.914,15.385-15.387v-2.467C306.344,492.096,299.432,485.191,290.949,485.191z M299.172,503.035
			c0,4.533-3.682,8.215-8.213,8.215h-41.311c-4.523,0-8.214-3.691-8.214-8.215v-2.467c0-4.523,3.701-8.205,8.214-8.205h41.311
			c4.541,0,8.213,3.691,8.213,8.205V503.035z"/>
		<path d="M310.227,306.908c5.279,0,8.186-0.238,6.676-1.004c-1.512-0.765-1.205-0.517,0.793,0.277
			c1.176,0.469,2.447,0.736,3.797,0.736h21.734c6.178,0,11.18-5.011,11.18-11.179v-34.711c0-0.574-0.201-1.062-0.537-1.454
			c-0.562-0.66-1.299-5.145-1.299-10.423v-20.33c0-1.731-1.082-3.127-2.41-3.127H184.652c-1.33,0-2.41,1.396-2.41,3.127v74.97
			c0,1.73,1.081,3.127,2.41,3.127h125.574V306.908z M351.881,270.408c0.049,10.328,0.049,25.321,0.049,25.321
			c0,4.801-3.902,8.702-8.713,8.702h-21.734c-4.811,0-8.713-3.901-8.713-8.702V270.58c0-5.278,1.195-9.687,2.678-9.715
			c1.35-0.029,2.697-0.029,2.697-0.029h28.41c0,0,1.166,0,2.592,0C350.59,260.836,351.852,265.121,351.881,270.408z
			 M320.631,254.716v-3.643c0-2.046,1.664-3.72,3.711-3.72h16.035c2.047,0,3.711,1.664,3.711,3.72c0,0,0,1.635,0,3.643
			c0,2.018-4.285,3.644-9.562,3.644h-4.332C324.906,258.36,320.631,256.734,320.631,254.716z M196.625,231.919h141.563
			c5.279,0,9.562,4.284,9.562,9.562v7.325c0,5.279-0.268,9.562-0.594,9.562c-0.324,0-0.592-1.635-0.592-3.643v-3.644
			c0-3.414-2.773-6.196-6.178-6.196h-16.045c-3.414,0-6.188,2.783-6.188,6.196c0,0,0,1.635,0,3.644c0,2.018-1.156,3.643-2.592,3.643
			h-2.602c-1.473,0-2.658,1.186-2.658,2.649v34.712c0,0.879,0.125,1.73,0.346,2.543c0.373,1.367-3.348,2.391-8.637,2.391H196.625
			c-5.279,0-9.562-4.284-9.562-9.562v-49.62C187.062,236.204,191.346,231.919,196.625,231.919z"/>
		<path d="M332.354,274.587c-4.436,0-8.051,3.615-8.051,8.052c0,4.438,3.605,8.052,8.051,8.052c4.438,0,8.053-3.614,8.053-8.052
			C340.406,278.202,336.801,274.587,332.354,274.587z M332.354,288.204c-3.068,0-5.574-2.496-5.574-5.575
			c0-3.069,2.506-5.574,5.574-5.574c3.07,0,5.576,2.505,5.576,5.574C337.93,285.709,335.424,288.204,332.354,288.204z"/>
		<path d="M230.179,247.248c-0.593,0.229-1.396,0.612-2.391,1.119c-0.507,0.258-1.033,0.517-1.568,0.775
			c-0.87,0.42-1.521,0.096-1.415-0.717c0.067-0.526,0.124-1.014,0.191-1.473c0.115-0.861,0.201-1.597,0.258-2.19
			c0.058-0.603,0.086-1.004,0.086-1.214c0-0.746-0.201-1.348-0.593-1.798c-0.401-0.449-0.908-0.679-1.521-0.679
			c-0.631,0-1.147,0.22-1.54,0.679c-0.401,0.45-0.593,0.985-0.593,1.616c0,0.507,0.067,1.463,0.21,2.84
			c0.067,0.65,0.144,1.262,0.229,1.845c0.144,1.023-0.392,1.501-1.291,1.071c-0.574-0.277-1.119-0.545-1.625-0.794
			c-0.947-0.468-1.721-0.832-2.333-1.071c-0.612-0.249-1.128-0.373-1.53-0.373c-0.564,0-1.062,0.201-1.501,0.593
			c-0.42,0.402-0.65,0.909-0.65,1.501c0,0.306,0.105,0.641,0.296,1.004c0.201,0.363,0.401,0.593,0.602,0.698
			c1.253,0.526,2.448,0.927,3.577,1.195c0.593,0.144,1.224,0.287,1.903,0.411c1.062,0.201,0.698,1.444-0.66,2.983
			c-0.794,0.899-1.568,1.865-2.324,2.897c-0.163,0.229-0.258,0.583-0.258,1.042c0,0.487,0.22,0.956,0.631,1.396
			c0.42,0.43,0.937,0.65,1.568,0.65c0.526,0,0.995-0.191,1.406-0.574c0.411-0.383,0.832-0.947,1.282-1.702
			c0.268-0.469,0.708-1.234,1.31-2.314c0.717-1.281,1.884-1.052,2.726,0.45c0.641,1.157,1.205,2.037,1.692,2.629
			c0.803,1.004,1.54,1.511,2.181,1.511c0.65,0,1.176-0.201,1.587-0.612c0.402-0.411,0.612-0.879,0.612-1.425
			c0-0.43-0.096-0.793-0.268-1.081c-0.182-0.296-0.497-0.708-0.956-1.243c-0.459-0.526-0.813-0.966-1.071-1.329
			c-0.039-0.048-0.402-0.44-1.1-1.176c-0.316-0.325-0.603-0.622-0.871-0.889c-0.487-0.488,0.765-1.09,2.783-1.606
			c1.253-0.325,2.438-0.708,3.577-1.157c0.229-0.096,0.468-0.334,0.669-0.698c0.22-0.364,0.325-0.717,0.325-1.052
			c0-0.593-0.21-1.09-0.65-1.501c-0.44-0.402-0.947-0.593-1.549-0.593C231.25,246.895,230.782,247.009,230.179,247.248z"/>
		<path d="M266.144,247.248c-0.593,0.229-1.396,0.612-2.4,1.119c-0.507,0.258-1.033,0.517-1.568,0.775
			c-0.87,0.42-1.511,0.096-1.415-0.717c0.066-0.526,0.124-1.014,0.191-1.473c0.114-0.861,0.2-1.597,0.248-2.19
			c0.058-0.603,0.086-1.004,0.086-1.214c0-0.746-0.2-1.348-0.593-1.798c-0.401-0.449-0.908-0.679-1.521-0.679
			c-0.631,0-1.147,0.22-1.549,0.679c-0.401,0.45-0.593,0.985-0.593,1.616c0,0.507,0.066,1.463,0.21,2.84
			c0.067,0.65,0.144,1.262,0.229,1.845c0.153,1.023-0.401,1.501-1.291,1.071c-0.573-0.277-1.118-0.545-1.616-0.794
			c-0.947-0.468-1.721-0.832-2.333-1.071c-0.612-0.249-1.128-0.373-1.53-0.373c-0.564,0-1.062,0.201-1.492,0.593
			c-0.43,0.402-0.65,0.909-0.65,1.501c0,0.306,0.105,0.641,0.297,1.004c0.201,0.363,0.401,0.593,0.593,0.698
			c1.262,0.526,2.448,0.927,3.576,1.195c0.593,0.144,1.224,0.287,1.903,0.411c1.062,0.201,0.698,1.444-0.65,2.983
			c-0.794,0.899-1.568,1.865-2.324,2.897c-0.182,0.229-0.258,0.583-0.258,1.042c0,0.487,0.201,0.956,0.631,1.396
			c0.412,0.43,0.938,0.65,1.568,0.65c0.526,0,0.995-0.191,1.396-0.574c0.411-0.383,0.832-0.947,1.271-1.702
			c0.277-0.469,0.718-1.234,1.319-2.314c0.718-1.281,1.884-1.061,2.726,0.45c0.641,1.157,1.205,2.037,1.683,2.629
			c0.813,1.004,1.54,1.511,2.181,1.511c0.65,0,1.186-0.201,1.588-0.612c0.401-0.411,0.611-0.879,0.611-1.425
			c0-0.43-0.096-0.793-0.268-1.081c-0.182-0.296-0.497-0.708-0.956-1.243c-0.459-0.526-0.812-0.966-1.062-1.329
			c-0.038-0.048-0.411-0.44-1.1-1.176c-0.315-0.325-0.603-0.622-0.87-0.889c-0.488-0.488,0.774-1.09,2.782-1.606
			c1.253-0.325,2.438-0.708,3.567-1.157c0.239-0.096,0.469-0.334,0.679-0.698c0.21-0.364,0.325-0.717,0.325-1.052
			c0-0.593-0.22-1.09-0.65-1.501c-0.431-0.402-0.946-0.593-1.539-0.593C267.214,246.895,266.737,247.009,266.144,247.248z"/>
		<path d="M302.107,247.248c-0.592,0.229-1.395,0.612-2.391,1.119c-0.516,0.258-1.031,0.517-1.576,0.775
			c-0.871,0.42-1.512,0.096-1.406-0.717c0.066-0.526,0.133-1.014,0.191-1.473c0.115-0.861,0.201-1.597,0.258-2.19
			c0.057-0.603,0.086-1.004,0.086-1.214c0-0.746-0.201-1.348-0.592-1.798c-0.402-0.449-0.9-0.679-1.521-0.679
			c-0.631,0-1.146,0.22-1.539,0.679c-0.402,0.45-0.604,0.985-0.604,1.616c0,0.507,0.078,1.463,0.221,2.84
			c0.066,0.65,0.143,1.262,0.229,1.845c0.145,1.023-0.4,1.501-1.291,1.071c-0.572-0.277-1.117-0.545-1.615-0.794
			c-0.947-0.468-1.721-0.832-2.342-1.071c-0.604-0.249-1.119-0.373-1.531-0.373c-0.564,0-1.051,0.201-1.492,0.593
			c-0.43,0.402-0.648,0.909-0.648,1.501c0,0.306,0.094,0.641,0.295,1.004s0.402,0.593,0.594,0.698
			c1.262,0.526,2.447,0.927,3.576,1.195c0.592,0.144,1.225,0.287,1.902,0.411c1.062,0.201,0.699,1.444-0.65,2.983
			c-0.793,0.899-1.568,1.865-2.322,2.897c-0.174,0.229-0.26,0.583-0.26,1.042c0,0.487,0.201,0.956,0.623,1.396
			c0.42,0.43,0.945,0.65,1.568,0.65c0.525,0,0.994-0.191,1.404-0.574c0.412-0.383,0.832-0.947,1.271-1.702
			c0.277-0.469,0.719-1.234,1.32-2.314c0.717-1.281,1.885-1.061,2.725,0.45c0.641,1.157,1.205,2.037,1.693,2.629
			c0.803,1.004,1.529,1.511,2.18,1.511s1.178-0.201,1.588-0.612c0.412-0.411,0.611-0.879,0.611-1.425
			c0-0.43-0.086-0.793-0.268-1.081c-0.172-0.296-0.486-0.708-0.955-1.243c-0.459-0.526-0.812-0.966-1.072-1.329
			c-0.037-0.048-0.41-0.44-1.1-1.176c-0.305-0.325-0.602-0.622-0.869-0.889c-0.488-0.488,0.773-1.09,2.783-1.606
			c1.252-0.325,2.447-0.708,3.576-1.157c0.229-0.096,0.459-0.334,0.678-0.698c0.211-0.364,0.316-0.717,0.316-1.052
			c0-0.593-0.221-1.09-0.65-1.501c-0.43-0.402-0.957-0.593-1.549-0.593C303.18,246.895,302.701,247.009,302.107,247.248z"/>
	</g>
</g>
</svg>